<?xml version="1.0" encoding="utf-8"?>
<!-- Generator: Adobe Illustrator 21.0.2, SVG Export Plug-In . SVG Version: 6.00 Build 0)  -->
<svg version="1.1" id="Capa_1" xmlns="http://www.w3.org/2000/svg" xmlns:xlink="http://www.w3.org/1999/xlink" x="0px" y="0px"
	 viewBox="0 0 50 50" style="enable-background:new 0 0 50 50;" xml:space="preserve">
<g>
	<g id="c93_stop">
		<path d="M45.1,49.8c-0.3,0.3-0.8,0.3-1.1,0l-30.2-24c-0.3-0.3-0.3-0.6-0.3-0.8c0-0.3,0.3-0.6,0.6-0.8L44.3,0.4
			c0-0.3,0-0.3,0.3-0.3h0.6c0.3,0.3,0.6,0.6,0.6,1.1v47.5C45.7,49.2,45.4,49.5,45.1,49.8z"/>
		<path d="M12.4,49.8H5.2c-0.6,0-0.8-0.6-0.8-1.1V1.2c0-0.6,0.3-1.1,0.8-1.1h7.5c0.6,0,0.8,0.6,0.8,1.1v47.2
			C13.5,49.2,13,49.8,12.4,49.8z"/>
	</g>
	<g id="Capa_1_11_">
	</g>
</g>
</svg>
