<?xml version="1.0" standalone="no"?>
<!DOCTYPE svg PUBLIC "-//W3C//DTD SVG 20010904//EN"
 "http://www.w3.org/TR/2001/REC-SVG-20010904/DTD/svg10.dtd">
<svg version="1.0" xmlns="http://www.w3.org/2000/svg"
 width="2130.000000pt" height="2130.000000pt" viewBox="0 0 2130.000000 2130.000000"
 preserveAspectRatio="xMidYMid meet">
<metadata>
Created by potrace 1.11, written by Peter Selinger 2001-2013
</metadata>
<g transform="translate(0.000000,2130.000000) scale(0.100000,-0.100000)"
fill="#000000" stroke="none">
<path d="M10577 19614 c-1 -1 -87 -4 -192 -8 -104 -4 -212 -8 -240 -11 -27 -2
-88 -7 -135 -10 -150 -12 -294 -25 -330 -30 -14 -2 -50 -6 -80 -10 -78 -8
-197 -23 -235 -30 -11 -1 -42 -6 -70 -10 -27 -3 -61 -8 -75 -11 -14 -2 -41 -7
-60 -10 -19 -3 -71 -12 -115 -19 -44 -8 -96 -17 -115 -20 -19 -3 -42 -8 -50
-10 -8 -2 -28 -7 -45 -10 -33 -5 -57 -10 -125 -23 -91 -18 -288 -65 -395 -93
-60 -16 -120 -32 -132 -34 -126 -28 -671 -207 -841 -277 -15 -6 -31 -12 -37
-13 -36 -9 -473 -203 -630 -280 -351 -172 -611 -321 -960 -551 -191 -125 -641
-454 -675 -493 -3 -3 -27 -24 -55 -46 -27 -22 -55 -44 -61 -50 -6 -5 -35 -31
-65 -57 -30 -25 -65 -56 -79 -68 -14 -11 -36 -31 -50 -43 -254 -216 -746 -720
-966 -987 -16 -19 -37 -44 -47 -55 -25 -27 -276 -340 -313 -390 -16 -22 -31
-42 -34 -45 -3 -3 -17 -21 -30 -40 -14 -19 -28 -39 -33 -45 -42 -51 -309 -442
-371 -545 -15 -25 -51 -85 -81 -133 -30 -48 -55 -91 -55 -94 0 -4 -6 -14 -14
-22 -7 -9 -28 -43 -45 -76 -18 -33 -41 -75 -52 -94 -48 -81 -170 -319 -249
-486 -105 -219 -102 -212 -185 -415 -37 -91 -71 -174 -76 -185 -87 -206 -255
-737 -329 -1040 -52 -212 -132 -606 -146 -715 -2 -19 -6 -46 -9 -60 -2 -14 -7
-38 -9 -55 -2 -16 -7 -50 -11 -75 -4 -25 -8 -56 -10 -70 -2 -14 -6 -43 -9 -65
-3 -22 -8 -65 -11 -95 -3 -30 -7 -71 -10 -90 -6 -49 -13 -113 -20 -195 -9
-106 -12 -151 -30 -473 -5 -92 -11 -124 -32 -165 -24 -48 -73 -86 -157 -119
-108 -44 -293 -135 -333 -164 -17 -13 -35 -24 -38 -24 -4 0 -58 -38 -119 -84
-194 -146 -397 -363 -538 -576 -92 -140 -142 -247 -231 -501 -67 -188 -117
-320 -127 -334 -4 -5 -7 -1196 -7 -2645 0 -2514 0 -2636 17 -2665 16 -27 26
-61 46 -170 3 -16 28 -97 55 -180 227 -684 738 -1199 1399 -1411 108 -35 236
-65 339 -80 25 -4 54 -8 64 -10 20 -3 130 -13 234 -21 38 -2 432 -7 877 -9
749 -5 810 -4 835 12 14 9 31 24 36 33 7 11 10 1282 11 3756 1 2057 4 3864 7
4015 3 151 9 397 12 545 13 633 27 1028 41 1098 1 9 6 54 9 98 4 45 8 89 10
98 1 9 6 45 10 81 4 36 9 72 10 82 2 9 7 38 11 65 7 49 10 69 18 113 3 14 7
41 10 60 7 49 42 222 61 305 9 39 19 79 21 89 19 97 159 569 191 646 3 8 7 17
8 20 1 3 7 18 13 33 7 16 12 31 12 35 0 8 124 307 163 392 170 377 461 866
690 1160 7 9 32 42 57 75 42 56 168 214 180 225 3 3 39 45 80 95 41 49 82 97
90 106 8 9 56 60 105 115 242 266 515 524 840 793 11 9 74 57 140 106 66 50
122 92 125 95 28 28 381 259 509 333 479 276 920 466 1411 607 41 11 98 27
125 35 161 46 561 126 745 150 25 3 61 7 80 10 19 2 58 7 85 10 28 3 68 7 90
10 48 5 134 12 270 21 210 15 868 8 1015 -10 14 -2 66 -7 115 -10 50 -4 101
-9 115 -11 14 -2 53 -7 87 -10 34 -3 70 -7 80 -9 10 -2 46 -7 78 -11 33 -4 69
-9 80 -11 11 -3 40 -7 65 -9 25 -3 56 -8 70 -10 14 -3 39 -7 55 -10 17 -3 39
-7 50 -9 11 -2 61 -11 110 -20 50 -9 117 -23 150 -31 33 -8 71 -16 85 -19 151
-27 589 -167 855 -274 227 -91 637 -293 795 -392 8 -5 78 -48 154 -96 213
-130 527 -353 691 -489 27 -22 78 -65 114 -95 365 -303 809 -765 1052 -1095
24 -33 46 -62 49 -65 10 -9 125 -171 201 -285 489 -724 863 -1646 1024 -2523
3 -15 7 -38 10 -52 3 -14 7 -43 10 -65 3 -22 7 -49 9 -61 2 -12 7 -45 11 -74
4 -29 8 -62 11 -73 2 -11 6 -45 9 -76 3 -31 7 -65 9 -76 2 -11 7 -58 11 -105
4 -47 8 -92 10 -100 2 -8 6 -62 10 -120 3 -58 8 -121 10 -140 2 -19 7 -100 11
-180 3 -80 8 -176 11 -215 3 -38 6 -1980 7 -4315 1 -2335 6 -4256 10 -4270 16
-49 53 -87 98 -98 31 -9 278 -11 883 -8 815 4 891 6 1040 26 111 16 131 20
242 51 683 192 1229 684 1486 1339 41 104 97 294 112 375 2 17 7 39 9 50 2 11
7 45 11 75 4 30 9 64 12 75 10 45 13 576 13 2490 0 1932 -2 2365 -15 2485 -17
170 -24 220 -47 325 -11 50 -21 101 -24 114 -3 13 -24 83 -48 156 -184 557
-578 987 -1156 1261 -306 146 -287 121 -295 384 -3 102 -7 212 -10 245 -2 33
-6 94 -9 135 -6 75 -14 158 -21 215 -20 163 -40 310 -50 368 -3 15 -7 41 -10
57 -8 51 -16 94 -21 125 -15 90 -79 397 -105 505 -17 69 -32 132 -34 141 -53
258 -293 998 -420 1294 -7 17 -32 75 -55 130 -24 55 -53 123 -65 150 -13 28
-33 73 -45 100 -104 237 -375 735 -522 963 -10 15 -21 34 -25 42 -17 34 -167
255 -175 258 -4 2 -8 8 -8 13 0 12 -153 224 -284 394 -153 198 -289 359 -511
604 -138 153 -516 521 -700 680 -33 29 -71 63 -85 75 -14 13 -77 65 -140 118
-98 80 -172 139 -394 311 -32 24 -42 31 -273 193 -153 108 -338 231 -436 290
-72 43 -75 45 -172 103 -49 30 -108 64 -130 76 -22 13 -83 46 -135 75 -185
103 -520 267 -730 357 -58 24 -118 51 -135 58 -210 93 -758 279 -1025 347
-172 44 -279 70 -345 84 -38 9 -77 17 -85 19 -51 12 -323 64 -360 69 -25 3
-55 8 -67 10 -71 14 -364 52 -468 61 -38 4 -81 8 -94 10 -13 2 -67 7 -120 11
-53 3 -112 8 -131 10 -96 9 -724 25 -733 18z"/>
<path d="M15840 10573 c-221 -12 -390 -82 -526 -217 -100 -100 -161 -202 -203
-341 -53 -171 -50 40 -49 -3885 0 -3910 -2 -3704 49 -3875 75 -248 260 -431
525 -515 107 -34 289 -37 411 -5 104 27 228 86 310 147 156 118 257 324 280
573 9 94 8 7040 0 7275 -4 102 -10 199 -13 215 -55 317 -307 564 -630 615 -93
15 -102 15 -154 13z"/>
<path d="M5265 10550 c-244 -61 -403 -177 -508 -370 -38 -70 -82 -208 -92
-287 -3 -26 -8 -59 -11 -73 -6 -28 -6 -6413 0 -7025 5 -438 7 -475 37 -573 51
-168 181 -321 344 -404 304 -155 579 -150 827 16 118 78 217 185 271 292 31
61 73 192 82 254 4 25 9 59 12 75 7 47 6 7261 -2 7345 -6 66 -12 103 -31 198
-13 64 -82 206 -131 267 -115 146 -285 253 -459 289 -92 19 -252 17 -339 -4z"/>
<path d="M8923 9119 c-34 -4 -70 -12 -80 -17 -10 -6 -22 -11 -28 -12 -37 -8
-137 -74 -195 -130 -26 -24 -96 -82 -146 -120 -74 -55 -147 -121 -178 -159
-118 -147 -81 -350 84 -456 41 -26 131 -49 165 -42 28 5 44 -9 40 -36 -2 -10
-7 -62 -10 -115 -4 -53 -9 -104 -10 -112 -2 -8 -6 -64 -10 -125 -3 -60 -9
-137 -11 -170 -6 -84 -6 -246 1 -332 4 -55 2 -73 -7 -74 -83 -5 -181 -51 -241
-112 -89 -90 -98 -278 -20 -379 72 -92 150 -116 388 -119 286 -3 546 0 568 7
114 34 202 125 225 229 9 39 5 130 -7 172 -25 91 -125 181 -224 204 l-54 11
-3 52 c-8 127 0 404 14 496 6 36 17 146 22 212 2 31 6 70 10 85 3 15 8 177 10
358 2 182 5 353 7 380 14 197 -119 326 -310 304z"/>
<path d="M12160 9100 c-338 -58 -605 -316 -739 -715 -57 -169 -75 -293 -74
-510 1 -365 55 -626 178 -864 50 -95 63 -114 148 -206 299 -326 889 -336 1212
-20 45 44 96 100 112 125 167 248 246 576 247 1030 0 277 -32 448 -121 639
-187 403 -541 595 -963 521z m280 -633 c86 -42 140 -161 167 -362 8 -69 8
-296 -2 -375 -4 -36 -7 -72 -7 -80 0 -8 -9 -54 -19 -102 -44 -204 -114 -320
-215 -359 -41 -15 -133 -13 -175 5 -67 28 -131 117 -163 227 -56 192 -76 508
-42 667 37 174 118 313 217 376 59 38 165 39 239 3z"/>
<path d="M9008 5715 c-2 -1 -28 -5 -58 -8 -199 -18 -415 -136 -551 -299 -153
-184 -263 -433 -294 -669 -3 -24 -8 -60 -11 -79 -5 -41 -6 -352 0 -395 2 -16
7 -60 11 -97 6 -68 10 -97 19 -126 3 -9 7 -33 10 -53 3 -20 10 -48 15 -63 6
-14 9 -26 6 -26 -2 0 11 -45 30 -99 103 -297 266 -485 505 -586 31 -13 68 -26
81 -29 13 -2 49 -10 79 -17 94 -21 286 -16 400 10 382 87 628 409 706 921 3
19 7 46 9 60 20 116 27 493 12 624 -20 179 -100 405 -191 541 -31 45 -116 146
-156 183 -101 95 -265 173 -415 198 -35 5 -202 13 -207 9z m151 -636 c20 -6
55 -31 78 -55 78 -81 115 -235 117 -484 1 -177 -6 -273 -29 -380 -31 -150 -79
-260 -138 -320 -85 -85 -239 -86 -323 -2 -50 51 -111 203 -129 322 -3 19 -8
53 -11 75 -3 22 -7 120 -9 217 -2 160 0 186 21 270 74 285 231 418 423 357z"/>
<path d="M12545 5696 c-68 -25 -151 -77 -210 -133 -44 -42 -165 -140 -205
-166 -59 -40 -134 -125 -162 -183 -47 -100 -39 -199 24 -294 57 -85 157 -140
257 -140 l48 0 -3 -42 c-3 -42 -9 -115 -20 -253 -3 -38 -8 -86 -11 -105 -3
-19 -6 -154 -8 -299 l-2 -265 -29 -3 c-117 -15 -222 -88 -267 -187 -26 -57
-30 -159 -7 -225 32 -95 120 -164 235 -186 17 -3 190 -6 386 -6 329 0 359 1
407 19 78 30 127 74 164 149 63 129 35 281 -68 372 -39 34 -110 68 -159 75 -8
1 -18 5 -22 9 -22 23 -21 329 2 545 9 77 14 126 20 197 4 39 9 86 12 105 3 19
7 181 10 360 2 179 5 359 5 400 2 124 -51 214 -155 260 -57 26 -166 24 -242
-4z"/>
</g>
</svg>
