<svg xmlns="http://www.w3.org/2000/svg" viewBox="0 0 510.91 430.17"><defs><style>.cls-1{fill:#f1583b;}.cls-2{fill:#ef4346;stroke:#ef4346;stroke-miterlimit:10;stroke-width:8.5px;}</style></defs><title>icon-playbyte</title><g id="Layer_1" data-name="Layer 1"><path class="cls-1" d="M.1,298.4c3.06-6.66,4.36-14,8.59-20.24C15,268.81,23,261.57,33.58,257.63c3.4-1.27,4.36-3,4.49-6.48,2-53.11,21.11-99.34,56.65-138.75,32.61-36.17,72.87-59.5,120.78-68.05,63.16-11.26,121,2.15,172,41.59q65.11,50.34,81.52,131.42A179.8,179.8,0,0,1,473,252.42c0,2.55.91,3.69,3.3,4.68,23.08,9.58,34.38,27.32,34.58,51.95.3,36.07.16,72.15,0,108.23a53.67,53.67,0,0,1-42.32,52.13,69.39,69.39,0,0,1-13.38,1.09c-10.63.16-21.29-.19-31.91.16-4.77.16-6.37-.74-6.34-6.05.27-42.56.15-85.12.15-127.69,0-22.11.26-44.23-.08-66.34-.28-18.57-1.46-37.07-6.67-55.14q-14.46-50.1-54.85-82.82c-20.46-16.54-43.67-27.91-69.61-32.19-64.38-10.63-117.46,9.68-158,60.83-21.33,26.87-32.07,58.08-33,92.44-1.9,67.48-.32,135-.82,202.47,0,3.65-.13,7.32,0,11,.13,2.51-.53,3.51-3.27,3.47-13.63-.22-27.3.37-40.88-.47-24.73-1.54-43.62-18.61-48.73-43-.17-.79-.06-1.68-1-2Z" transform="translate(-0.1 -40.51)"/><path class="cls-1" d="M111.59,363.56q0-42.36,0-84.73c0-11.09,4.54-17.77,13.64-20.53a18.61,18.61,0,0,1,23.45,13.42,36.12,36.12,0,0,1,.83,7.9q.06,84.22.05,168.46c0,6.35-1.15,12.22-6,16.79-5.76,5.43-12.56,6.71-19.79,4s-11.84-8.2-12-16.13c-.28-20.93-.2-41.86-.25-62.79C111.57,381.17,111.59,372.36,111.59,363.56Z" transform="translate(-0.1 -40.51)"/><path class="cls-1" d="M399.46,364q0,42.36,0,84.73c0,11-4.32,17.55-13.12,20.45a18.67,18.67,0,0,1-24.09-13.72,33.37,33.37,0,0,1-.73-6.91q-.06-84.72,0-169.45c0-13.37,8-21.95,19.91-21.62,9.27.26,17.31,7.5,17.72,16.82.49,10.78.31,21.59.33,32.38Q399.51,335.39,399.46,364Z" transform="translate(-0.1 -40.51)"/></g><g id="Layer_2" data-name="Layer 2"><path class="cls-2" d="M219.71,348.34h-6.62l-6.57,0a12.08,12.08,0,0,1-3.26-.3,2.41,2.41,0,0,1-1.69-2.52q0-3.36,5.21-3.36l1.6,0,1.36.07c0-1.06-.09-2.64-.28-4.72s-.29-3.64-.29-4.68q0-4.21.77-12.82t.7-12.86c-3,2.3-4.86,3.46-5.68,3.46a3.38,3.38,0,0,1-3.29-3.29c0-1,1-2.31,2.85-3.79,1.2-.84,2.89-2.19,5.09-4q2.92-3,5.58-3c1.48,0,2.22.85,2.22,2.56a17.48,17.48,0,0,1-.2,2.27,19.8,19.8,0,0,0-.2,2.28c0,.73,0,1.84.12,3.32s.12,2.59.12,3.32q0,3.8-.8,11.3t-.8,11.26q0,1.92.27,4.68c.18,1.84.27,3.35.3,4.52l3.49-.07a3.11,3.11,0,0,1,2.3.92,3.3,3.3,0,0,1,0,4.57A3.17,3.17,0,0,1,219.71,348.34Z" transform="translate(-0.1 -40.51)"/><path class="cls-2" d="M294.79,349.6q-10.11,0-14.75-9.23-3.53-7.11-3.52-18.5a30.48,30.48,0,0,1,4.58-16.81q5.41-8.4,14.72-8.41a15.43,15.43,0,0,1,13.62,7.44q4.21,6.45,4.21,15.72,0,14.88-4.71,22.34T294.79,349.6Zm1-46.53q-6.18,0-9.8,6.27a23.65,23.65,0,0,0-3,12q0,10.94,3,16.41a9.51,9.51,0,0,0,8.87,5.49q7,0,10.09-8A40.12,40.12,0,0,0,307,321q0-9-2.81-13.49A9.28,9.28,0,0,0,295.78,303.07Z" transform="translate(-0.1 -40.51)"/><path class="cls-2" d="M216.62,431.24q-10.11,0-14.75-9.23-3.52-7.11-3.52-18.51a30.47,30.47,0,0,1,4.58-16.8q5.41-8.42,14.72-8.41a15.43,15.43,0,0,1,13.62,7.44q4.22,6.45,4.21,15.71,0,14.9-4.71,22.34T216.62,431.24Zm1-46.54q-6.18,0-9.8,6.28a23.65,23.65,0,0,0-3,12q0,10.93,3,16.41a9.5,9.5,0,0,0,8.87,5.48q7,0,10.09-8a40.18,40.18,0,0,0,2.13-14.16q0-9-2.81-13.48A9.28,9.28,0,0,0,217.61,384.7Z" transform="translate(-0.1 -40.51)"/><path class="cls-2" d="M308.77,430h-6.61l-6.58,0a12,12,0,0,1-3.25-.3,2.43,2.43,0,0,1-1.7-2.53q0-3.35,5.22-3.35l1.59,0,1.36.07c0-1.07-.09-2.64-.28-4.72s-.28-3.64-.28-4.68q0-4.23.76-12.83t.7-12.85q-4.45,3.45-5.68,3.45a3.17,3.17,0,0,1-2.31-1,3.21,3.21,0,0,1-1-2.3q0-1.56,2.86-3.78,1.8-1.26,5.08-4.05c1.95-2,3.81-3,5.58-3,1.49,0,2.23.85,2.23,2.56a19.67,19.67,0,0,1-.2,2.27,19.8,19.8,0,0,0-.2,2.28c0,.73,0,1.84.12,3.32s.11,2.59.11,3.32q0,3.79-.79,11.29t-.8,11.27c0,1.28.09,2.84.26,4.68s.28,3.34.3,4.52l3.49-.07a3.17,3.17,0,0,1,2.31.91,3.32,3.32,0,0,1,0,4.57A3.16,3.16,0,0,1,308.77,430Z" transform="translate(-0.1 -40.51)"/></g></svg>